<?xml version="1.0" encoding="utf-8"?>
<!DOCTYPE svg PUBLIC "-//W3C//DTD SVG 1.1//EN" "http://www.w3.org/Graphics/SVG/1.1/DTD/svg11.dtd">
<svg version="1.1" xmlns="http://www.w3.org/2000/svg" xmlns:xlink="http://www.w3.org/1999/xlink" width="30" height="32" viewBox="0 0 30 32">
  <path
     d="m 7.808,31.648 q -3.264,0 -5.44,-2.304 Q 0.064,27.104 0,24.032 -0.064,20.96 2.688,17.952 L 18.56,2.08 q 2.56,-2.56 5.568,-1.728 1.408,0.384 2.528,1.504 1.12,1.12 1.504,2.528 0.832,3.072 -1.728,5.632 L 11.264,25.184 q -1.28,1.28 -2.816,1.472 -1.536,0.128 -2.56,-0.896 -0.96,-0.768 -0.864,-2.368 0.096,-1.6 1.504,-2.944 L 17.152,9.76 q 0.768,-0.832 1.6,0 0.832,0.832 0,1.6 L 8.128,21.984 q -1.408,1.408 -0.64,2.24 0.384,0.256 0.768,0.192 0.768,-0.128 1.472,-0.832 L 24.896,8.416 q 1.6,-1.6 1.088,-3.456 Q 25.472,3.04 23.552,2.528 21.824,2.08 20.096,3.68 L 4.288,19.488 q -2.112,2.432 -2.048,4.576 0.064,2.144 1.664,3.744 1.6,1.536 3.744,1.6 2.144,0.064 4.512,-1.984 L 28.032,11.616 q 0.768,-0.768 1.6,0 0.832,0.704 0,1.536 L 13.76,29.024 q -2.624,2.624 -5.952,2.624 z" />
  <path
     d="M 2.1694915,2.1694916 27.38983,29.966101"
     style="fill:none;stroke:#000000;stroke-width:4;stroke-linecap:butt;stroke-linejoin:miter;stroke-miterlimit:4;stroke-opacity:1;stroke-dasharray:none" />
</svg>
