<?xml version="1.0" encoding="utf-8"?>
<!DOCTYPE svg PUBLIC "-//W3C//DTD SVG 1.1//EN" "http://www.w3.org/Graphics/SVG/1.1/DTD/svg11.dtd">
<svg version="1.1" xmlns="http://www.w3.org/2000/svg" xmlns:xlink="http://www.w3.org/1999/xlink" width="32" height="32" viewBox="0 0 32 32">
<path d="M30.705 17.004c-0.716 0-1.296 0.581-1.296 1.296v10.589H2.591V18.3c0-0.715-0.58-1.296-1.296-1.296 C0.58 17.004 0 17.585 0 18.3v10.733c0 1.35 1.097 2.446 2.446 2.446h27.108c1.349 0 2.446-1.097 2.446-2.446V18.3 C32 17.585 31.42 17.004 30.705 17.004z"/>
<path d="M15.688 22.543c0.172 0.221 0.451 0.221 0.624 0l6.699-8.549c0.086-0.11 0.129-0.256 0.129-0.398h-3.693V1.473 c0-0.525-0.426-0.952-0.951-0.952h-4.992c-0.525 0-0.951 0.427-0.951 0.952v12.123H8.86c0 0.143 0.042 0.288 0.128 0.398 L15.688 22.543z"/>
</svg>

