<?xml version="1.0" encoding="utf-8"?>
<!-- Generated by IcoMoon.io -->
<!DOCTYPE svg PUBLIC "-//W3C//DTD SVG 1.1//EN" "http://www.w3.org/Graphics/SVG/1.1/DTD/svg11.dtd">
<svg version="1.1" xmlns="http://www.w3.org/2000/svg" xmlns:xlink="http://www.w3.org/1999/xlink" width="27" height="32" viewBox="0 0 27 32">
<g>
</g>
	<path d="M23.328 22.912q1.472 0.512 2.4 1.824t0.96 2.912q0 2.080-1.472 3.52t-3.52 1.472-3.552-1.472-1.472-3.52q0-1.6 0.96-2.912t2.368-1.824v-3.072q0-0.992-0.704-1.728t-1.76-0.768q-2.528 0-4.224-1.76-1.664 1.76-4.16 1.76-0.992 0-1.728 0.768t-0.736 1.728v3.072q1.44 0.512 2.368 1.824t0.96 2.912q0 2.080-1.472 3.52t-3.552 1.472-3.52-1.472-1.472-3.52q0-1.6 0.928-2.912t2.4-1.824v-3.072q0-2.4 1.728-4.128t4.096-1.728q1.056 0 1.792-0.736t0.736-1.728v-2.528q-1.472-0.512-2.432-1.824t-0.928-2.88q0-2.080 1.472-3.552t3.52-1.472 3.552 1.472 1.472 3.552q0 1.6-0.96 2.88t-2.368 1.824v2.528q0 0.992 0.736 1.728t1.792 0.736q2.4 0 4.096 1.728t1.696 4.128v3.072zM4.992 29.28q0.704 0 1.184-0.48t0.512-1.152-0.512-1.184-1.184-0.512-1.184 0.512-0.48 1.184 0.48 1.152 1.184 0.48zM13.312 2.624q-0.672 0-1.152 0.48t-0.48 1.184 0.48 1.184 1.152 0.48 1.184-0.48 0.512-1.184-0.512-1.184-1.184-0.48zM21.696 29.28q0.672 0 1.152-0.48t0.48-1.152-0.48-1.184-1.152-0.512-1.184 0.512-0.512 1.184 0.512 1.152 1.184 0.48z" fill="#000000" />
</svg>
