<?xml version="1.0" encoding="utf-8"?>
<!DOCTYPE svg PUBLIC "-//W3C//DTD SVG 1.1//EN" "http://www.w3.org/Graphics/SVG/1.1/DTD/svg11.dtd">
<svg version="1.1" xmlns="http://www.w3.org/2000/svg" xmlns:xlink="http://www.w3.org/1999/xlink" width="32" height="32" viewBox="0 0 32 32">
<path d="M31.892 15.796L26.282 11.4c-0.072-0.057-0.167-0.084-0.262-0.084v2.423h-7.758v-7.76h2.423 c0-0.094-0.027-0.188-0.084-0.261l-4.396-5.609c-0.113-0.145-0.297-0.145-0.41 0L11.4 5.719c-0.056 0.072-0.084 0.167-0.084 0.3 h2.422v7.76H5.98v-2.424c-0.095 0-0.189 0.028-0.263 0.085l-5.609 4.396c-0.145 0.112-0.145 0.3 0 0.409l5.609 4.4 c0.073 0.1 0.2 0.1 0.3 0.084v-2.422h7.758v7.759h-2.423c0 0.1 0 0.2 0.1 0.261l4.396 5.6 c0.113 0.1 0.3 0.1 0.4 0l4.395-5.609c0.057-0.072 0.084-0.168 0.084-0.261h-2.423v-7.759h7.759v2.423 c0.095 0 0.189-0.028 0.262-0.084l5.609-4.396C32.036 16.1 32 15.9 31.9 15.796z M17.441 17.442h-2.883v-2.884h2.883 V17.442z"/>
</svg>
