<?xml version="1.0" encoding="utf-8"?>
<!-- Generated by IcoMoon.io -->
<!DOCTYPE svg PUBLIC "-//W3C//DTD SVG 1.1//EN" "http://www.w3.org/Graphics/SVG/1.1/DTD/svg11.dtd">
<svg version="1.1" xmlns="http://www.w3.org/2000/svg" xmlns:xlink="http://www.w3.org/1999/xlink" width="30" height="32" viewBox="0 0 30 32">
<g>
</g>
	<path d="M25.152 4.128q-0.736 0-1.28 0.512l-2.88 2.88-0.512-0.512q-1.44-1.44-3.648-1.44t-3.616 1.44l-6.976 6.944q-1.504 1.536-1.504 3.68 0 2.112 1.504 3.648l0.48 0.512-2.848 2.848q-0.512 0.512-0.512 1.28t0.512 1.312q0.576 0.576 1.28 0.576 0.768 0 1.344-0.576l2.816-2.88 0.544 0.512q1.504 1.536 3.68 1.536 2.112 0 3.616-1.536l6.976-6.944q1.472-1.472 1.472-3.648t-1.472-3.648l-0.512-0.512 2.88-2.88q0.544-0.544 0.544-1.312t-0.544-1.28-1.344-0.512zM5.152 31.136q-2.112 0-3.616-1.568t-1.536-3.616q0-2.144 1.536-3.68l0.8-0.8q-0.928-1.824-0.928-3.84 0-3.552 2.464-6.048l6.976-6.944q2.432-2.432 5.984-2.432 2.080 0 3.84 0.896l0.864-0.832q1.472-1.472 3.616-1.472t3.648 1.536 1.536 3.616q0 2.208-1.536 3.648l-0.8 0.8q0.96 1.92 0.96 3.872 0 3.488-2.528 6.016l-6.912 6.944q-2.464 2.496-6.048 2.496-2.016 0-3.872-0.928l-0.8 0.8q-1.504 1.536-3.648 1.536zM18.4 16.128q-1.344-0.064-2.368-1.056t-1.024-2.368l-3.040 3.104q1.344 0.032 2.336 1.024t1.024 2.336zM16.832 9.152q0.608 0 1.056 0.448l0.512 0.512-1.184 1.216q-0.576 0.544-0.576 1.312t0.576 1.28q0.512 0.512 1.28 0.512 0.8 0 1.312-0.512l1.184-1.216 0.544 0.544q0.416 0.416 0.416 1.024 0 0.64-0.416 1.088l-6.976 6.912q-0.448 0.448-1.024 0.448-0.64 0-1.088-0.448l-0.512-0.48 1.184-1.184q0.576-0.576 0.576-1.344t-0.576-1.28q-0.544-0.544-1.28-0.544-0.768 0-1.312 0.544l-1.216 1.216-0.512-0.512q-0.384-0.416-0.384-1.056 0-0.672 0.384-1.088l6.976-6.944q0.416-0.448 1.056-0.448z" fill="#000000" />
</svg>
